# xmcd
#
# Track frame offsets:
#	150
#	21420
#	34640
#	37662
#	54100
#	61390
#	84865
#	95230
#	99352
#	110045
#	121895
#	140732
#	153687
#	164222
#	180120
#	189100
#	210625
#
# Disc length: 2882 seconds
#
# Revision: 0
# Processed by: cddbd v1.5.2PL0 Copyright (c) Steve Scherf et al.
# Submitted via: EasyCDDAExtractor 15.2.5.1
#
DISCID=dc0b4011
DTITLE=Sleepy Sleepers - Metsäratio
DYEAR=1980
DGENRE=
TTITLE0=Metsäratio
TTITLE1=Römpöti Pöti Pöts
TTITLE2=Mainosuutiset
TTITLE3=Painimaan
TTITLE4=Sano Se Häiskä
TTITLE5=Haloo Warsowa
TTITLE6=Ei, Ei, Ei
TTITLE7=Aina Muistan
TTITLE8=Viimeinen Veteraani
TTITLE9=Rockabilly
TTITLE10=El Reino
TTITLE11=Hän On Se Poika
TTITLE12=Instrumental (Amerikkalainen Vakoojakameli)
TTITLE13=Ruusu Teksasin
TTITLE14=Tahdon Räkästä Sinua
TTITLE15=Calcutta
TTITLE16=Maamme (Instrumental)
EXTD=
EXTT0=
EXTT1=
EXTT2=
EXTT3=
EXTT4=
EXTT5=
EXTT6=
EXTT7=
EXTT8=
EXTT9=
EXTT10=
EXTT11=
EXTT12=
EXTT13=
EXTT14=
EXTT15=
EXTT16=
PLAYORDER=
